<svg xmlns="http://www.w3.org/2000/svg" xmlns:xlink="http://www.w3.org/1999/xlink" width="500" zoomAndPan="magnify" viewBox="0 0 375 374.999991" height="500" preserveAspectRatio="xMidYMid meet" version="1.0"><defs><g/></defs><rect x="-37.5" width="450" fill="#ffffff" y="-37.499999" height="449.999989" fill-opacity="1"/><rect x="-37.5" width="450" fill="#000000" y="-37.499999" height="449.999989" fill-opacity="1"/><g fill="#ffffff" fill-opacity="1"><g transform="translate(156.284092, 142.541974)"><g><path d="M 3.621094 0 C 3.808594 0 3.90625 -0.0976562 3.90625 -0.285156 L 3.90625 -3.609375 L 7.648438 -3.609375 L 7.648438 -0.285156 C 7.648438 -0.0976562 7.746094 0 7.933594 0 L 10.210938 0 C 10.398438 0 10.496094 -0.0976562 10.496094 -0.285156 L 10.496094 -10.414062 C 10.496094 -10.601562 10.398438 -10.699219 10.210938 -10.699219 L 7.933594 -10.699219 C 7.746094 -10.699219 7.648438 -10.601562 7.648438 -10.414062 L 7.648438 -6.03125 L 3.90625 -6.03125 L 3.90625 -10.414062 C 3.90625 -10.601562 3.808594 -10.699219 3.621094 -10.699219 L 1.34375 -10.699219 C 1.15625 -10.699219 1.058594 -10.601562 1.058594 -10.414062 L 1.058594 -0.285156 C 1.058594 -0.0976562 1.15625 0 1.34375 0 Z M 3.621094 0 "/></g></g></g><g fill="#ffffff" fill-opacity="1"><g transform="translate(179.267831, 142.541974)"><g><path d="M 5.789062 0.285156 C 8.414062 0.285156 10.628906 -0.84375 10.628906 -3.609375 L 10.628906 -10.414062 C 10.628906 -10.601562 10.523438 -10.699219 10.34375 -10.699219 L 7.988281 -10.699219 C 7.800781 -10.699219 7.703125 -10.601562 7.703125 -10.414062 L 7.703125 -4.367188 C 7.703125 -2.898438 7.050781 -2.285156 5.789062 -2.285156 C 4.546875 -2.285156 3.878906 -2.898438 3.878906 -4.367188 L 3.878906 -10.414062 C 3.878906 -10.601562 3.78125 -10.699219 3.59375 -10.699219 L 1.238281 -10.699219 C 1.058594 -10.699219 0.953125 -10.601562 0.953125 -10.414062 L 0.953125 -3.609375 C 0.953125 -0.84375 3.238281 0.285156 5.789062 0.285156 Z M 5.789062 0.285156 "/></g></g></g><g fill="#ffffff" fill-opacity="1"><g transform="translate(202.265497, 142.541974)"><g><path d="M 5.578125 0 C 8.742188 0 9.5 -1.609375 9.5 -3.007812 C 9.5 -4.136719 8.972656 -5.050781 7.558594 -5.507812 C 8.457031 -5.960938 9.054688 -6.792969 9.054688 -7.976562 C 9.054688 -9.457031 8.207031 -10.699219 5.507812 -10.699219 L 1.34375 -10.699219 C 1.15625 -10.699219 1.058594 -10.601562 1.058594 -10.414062 L 1.058594 -0.285156 C 1.058594 -0.0976562 1.15625 0 1.34375 0 Z M 3.90625 -8.273438 L 5.460938 -8.273438 C 6.277344 -8.273438 6.546875 -7.917969 6.546875 -7.417969 C 6.546875 -6.929688 6.277344 -6.546875 5.460938 -6.546875 L 3.90625 -6.546875 Z M 3.90625 -4.410156 L 5.523438 -4.410156 C 6.359375 -4.410156 6.644531 -3.976562 6.644531 -3.40625 C 6.644531 -2.855469 6.359375 -2.425781 5.523438 -2.425781 L 3.90625 -2.425781 Z M 3.90625 -4.410156 "/></g></g></g><g fill="#ffffff" fill-opacity="1"><g transform="translate(121.536816, 125.614854)"><g><path d="M 3.171875 0 C 3.335938 0 3.421875 -0.0859375 3.421875 -0.25 L 3.421875 -3.160156 L 6.699219 -3.160156 L 6.699219 -0.25 C 6.699219 -0.0859375 6.785156 0 6.949219 0 L 8.945312 0 C 9.109375 0 9.195312 -0.0859375 9.195312 -0.25 L 9.195312 -9.121094 C 9.195312 -9.285156 9.109375 -9.371094 8.945312 -9.371094 L 6.949219 -9.371094 C 6.785156 -9.371094 6.699219 -9.285156 6.699219 -9.121094 L 6.699219 -5.285156 L 3.421875 -5.285156 L 3.421875 -9.121094 C 3.421875 -9.285156 3.335938 -9.371094 3.171875 -9.371094 L 1.175781 -9.371094 C 1.011719 -9.371094 0.925781 -9.285156 0.925781 -9.121094 L 0.925781 -0.25 C 0.925781 -0.0859375 1.011719 0 1.175781 0 Z M 3.171875 0 "/></g></g></g><g fill="#ffffff" fill-opacity="1"><g transform="translate(141.668439, 125.614854)"><g><path d="M 5.160156 -9.371094 C 4.972656 -9.753906 4.671875 -9.753906 4.484375 -9.371094 L 0.1875 -0.300781 C 0.109375 -0.121094 0.1875 0 0.371094 0 L 2.574219 0 C 2.707031 0 2.8125 -0.0742188 2.863281 -0.203125 L 3.167969 -0.988281 L 6.480469 -0.988281 L 6.785156 -0.203125 C 6.832031 -0.0742188 6.9375 0 7.070312 0 L 9.273438 0 C 9.457031 0 9.535156 -0.121094 9.457031 -0.300781 Z M 4.824219 -5.214844 L 5.746094 -2.863281 L 3.898438 -2.863281 Z M 4.824219 -5.214844 "/></g></g></g><g fill="#ffffff" fill-opacity="1"><g transform="translate(161.324285, 125.614854)"><g><path d="M 6.984375 -3.519531 C 7.90625 -4.003906 8.433594 -5.003906 8.433594 -6.355469 C 8.433594 -7.960938 7.710938 -9.371094 5.070312 -9.371094 L 1.175781 -9.371094 C 1.011719 -9.371094 0.925781 -9.285156 0.925781 -9.121094 L 0.925781 -0.25 C 0.925781 -0.0859375 1.011719 0 1.175781 0 L 3.183594 0 C 3.347656 0 3.433594 -0.0859375 3.433594 -0.25 L 3.433594 -3.195312 L 4.492188 -3.195312 L 5.996094 -0.1875 C 6.058594 -0.0625 6.148438 0 6.285156 0 L 8.558594 0 C 8.75 0 8.820312 -0.121094 8.738281 -0.300781 Z M 4.636719 -7.25 C 5.136719 -7.25 5.9375 -7.25 5.9375 -6.332031 C 5.9375 -5.320312 4.984375 -5.320312 4.636719 -5.320312 L 3.433594 -5.320312 L 3.433594 -7.25 Z M 4.636719 -7.25 "/></g></g></g><g fill="#ffffff" fill-opacity="1"><g transform="translate(180.595851, 125.614854)"><g><path d="M 3.125 0 C 3.289062 0 3.375 -0.0859375 3.375 -0.25 L 3.375 -3.613281 L 5.484375 -1.148438 C 5.601562 -1.011719 5.722656 -1.011719 5.832031 -1.148438 L 7.972656 -3.636719 L 7.972656 -0.25 C 7.972656 -0.0859375 8.058594 0 8.222656 0 L 10.160156 0 C 10.324219 0 10.410156 -0.0859375 10.410156 -0.25 L 10.410156 -9.15625 C 10.410156 -9.621094 10.085938 -9.730469 9.796875 -9.371094 L 5.660156 -4.199219 L 1.550781 -9.371094 C 1.25 -9.75 0.941406 -9.621094 0.941406 -9.15625 L 0.941406 -0.25 C 0.941406 -0.0859375 1.023438 0 1.191406 0 Z M 3.125 0 "/></g></g></g><g fill="#ffffff" fill-opacity="1"><g transform="translate(201.941312, 125.614854)"><g><path d="M 5.625 0.25 C 8.683594 0.25 10.71875 -1.671875 10.71875 -4.6875 C 10.71875 -7.699219 8.683594 -9.621094 5.625 -9.621094 C 2.574219 -9.621094 0.550781 -7.699219 0.550781 -4.6875 C 0.550781 -1.671875 2.574219 0.25 5.625 0.25 Z M 5.625 -2 C 4.074219 -2 3.050781 -3.027344 3.050781 -4.6875 C 3.050781 -6.34375 4.074219 -7.371094 5.625 -7.371094 C 7.1875 -7.371094 8.222656 -6.34375 8.222656 -4.6875 C 8.222656 -3.027344 7.1875 -2 5.625 -2 Z M 5.625 -2 "/></g></g></g><g fill="#ffffff" fill-opacity="1"><g transform="translate(223.219682, 125.614854)"><g><path d="M 3.097656 0 C 3.265625 0 3.347656 -0.0859375 3.347656 -0.25 L 3.347656 -4.722656 L 8.535156 0 C 8.925781 0.359375 9.207031 0.203125 9.207031 -0.226562 L 9.207031 -9.121094 C 9.207031 -9.285156 9.121094 -9.371094 8.957031 -9.371094 L 7.046875 -9.371094 C 6.882812 -9.371094 6.796875 -9.285156 6.796875 -9.121094 L 6.796875 -4.808594 L 1.550781 -9.433594 C 1.203125 -9.738281 0.941406 -9.585938 0.941406 -9.15625 L 0.941406 -0.25 C 0.941406 -0.0859375 1.023438 0 1.191406 0 Z M 3.097656 0 "/></g></g></g><g fill="#ffffff" fill-opacity="1"><g transform="translate(243.363502, 125.614854)"><g><path d="M 6.023438 0 C 6.1875 0 6.273438 -0.0859375 6.273438 -0.25 L 6.273438 -3.585938 L 9.921875 -9.074219 C 10.035156 -9.230469 9.957031 -9.371094 9.753906 -9.371094 L 7.332031 -9.371094 C 7.199219 -9.371094 7.09375 -9.308594 7.035156 -9.195312 L 5.035156 -5.832031 L 3.0625 -9.195312 C 3 -9.308594 2.898438 -9.371094 2.765625 -9.371094 L 0.335938 -9.371094 C 0.140625 -9.371094 0.0625 -9.230469 0.175781 -9.074219 L 3.769531 -3.585938 L 3.769531 -0.25 C 3.769531 -0.0859375 3.863281 0 4.019531 0 Z M 6.023438 0 "/></g></g></g><g fill="#ffffff" fill-opacity="1"><g transform="translate(140.601895, 233.750551)"><g><path d="M 59.3125 -41.3125 C 62.878906 -54.53125 66.53125 -67.664062 70.183594 -80.796875 C 70.707031 -82.707031 71.226562 -84.535156 71.402344 -86.535156 C 68.621094 -87.664062 67.664062 -87.492188 66.707031 -85.40625 C 65.140625 -81.492188 63.488281 -77.578125 62.359375 -73.488281 C 58.964844 -61.75 55.835938 -50.007812 52.617188 -38.265625 C 52.269531 -36.960938 51.921875 -35.746094 51.574219 -34.699219 C 50.878906 -34.351562 50.53125 -34.179688 50.183594 -34.09375 C 41.484375 -31.832031 32.789062 -29.570312 24.003906 -27.394531 C 23.480469 -27.222656 22.785156 -27.394531 21.917969 -27.394531 C 22.785156 -30.699219 23.480469 -33.832031 24.265625 -36.875 C 25.046875 -39.917969 25.832031 -43.050781 26.613281 -46.09375 C 27.308594 -49.226562 28.089844 -52.269531 28.875 -55.398438 C 29.570312 -58.445312 30.789062 -61.402344 30.875 -64.53125 C 28.699219 -65.402344 28.179688 -65.488281 27.308594 -65.140625 C 26.089844 -64.707031 25.394531 -63.75 25.046875 -62.617188 C 24.351562 -60.707031 23.65625 -58.878906 23.132812 -56.964844 C 21.21875 -49.660156 19.394531 -42.355469 17.566406 -35.050781 C 16.699219 -31.570312 15.828125 -28.089844 15.046875 -24.613281 C 12.523438 -23.65625 10.089844 -22.785156 7.828125 -21.742188 C 5.566406 -20.613281 2.78125 -20.089844 1.390625 -17.132812 C 2.175781 -16.785156 2.957031 -16.175781 3.566406 -16.261719 C 4.957031 -16.351562 6.4375 -16.699219 7.828125 -17.046875 C 9.652344 -17.65625 11.304688 -18.699219 13.566406 -18.871094 C 13.394531 -17.742188 13.304688 -16.785156 13.132812 -15.914062 C 11.652344 -7.828125 10 0.175781 8.523438 8.261719 C 8.175781 10.4375 8.089844 12.699219 8.089844 14.957031 C 8.089844 17.132812 9.132812 17.566406 11.480469 16.523438 C 11.566406 12.523438 18.089844 -14.957031 20.523438 -21.21875 C 20.785156 -21.394531 21.132812 -21.65625 21.480469 -21.742188 C 30.527344 -24.351562 39.570312 -26.960938 48.617188 -29.570312 C 49.050781 -29.65625 49.574219 -29.484375 50.183594 -29.394531 C 50.007812 -28.4375 49.921875 -27.65625 49.746094 -26.875 C 48.441406 -21.480469 47.050781 -16.089844 45.832031 -10.699219 C 43.660156 -1.128906 41.570312 8.4375 39.570312 18.089844 C 39.136719 20.351562 39.136719 22.785156 39.136719 25.132812 C 39.136719 26.265625 39.570312 26.4375 41.570312 26.265625 C 43.917969 16.699219 46.269531 7.042969 48.789062 -2.523438 C 51.3125 -12.261719 53.746094 -22.003906 56.703125 -31.570312 C 59.660156 -32.265625 62.359375 -32.960938 65.140625 -33.570312 C 66.792969 -33.917969 68.445312 -34.265625 70.183594 -33.570312 C 71.402344 -33.136719 72.707031 -33.308594 73.835938 -34.09375 C 74.011719 -35.398438 73.316406 -36.003906 72.445312 -36.351562 C 71.488281 -36.789062 70.359375 -37.136719 69.402344 -37.050781 C 66.878906 -36.960938 64.359375 -36.703125 61.835938 -36.441406 C 60.707031 -36.351562 59.574219 -36.179688 58.183594 -36.09375 C 58.183594 -38.09375 58.878906 -39.746094 59.3125 -41.3125 Z M 59.3125 -41.3125 "/></g></g></g><g fill="#ffffff" fill-opacity="1"><g transform="translate(164.63163, 214.581123)"><g><path d="M 59.3125 -41.3125 C 62.878906 -54.53125 66.53125 -67.664062 70.183594 -80.796875 C 70.707031 -82.707031 71.226562 -84.535156 71.402344 -86.535156 C 68.621094 -87.664062 67.664062 -87.492188 66.707031 -85.40625 C 65.140625 -81.492188 63.488281 -77.578125 62.359375 -73.488281 C 58.964844 -61.75 55.835938 -50.007812 52.617188 -38.265625 C 52.269531 -36.960938 51.921875 -35.746094 51.574219 -34.699219 C 50.878906 -34.351562 50.53125 -34.179688 50.183594 -34.09375 C 41.484375 -31.832031 32.789062 -29.570312 24.003906 -27.394531 C 23.480469 -27.222656 22.785156 -27.394531 21.917969 -27.394531 C 22.785156 -30.699219 23.480469 -33.832031 24.265625 -36.875 C 25.046875 -39.917969 25.832031 -43.050781 26.613281 -46.09375 C 27.308594 -49.226562 28.089844 -52.269531 28.875 -55.398438 C 29.570312 -58.445312 30.789062 -61.402344 30.875 -64.53125 C 28.699219 -65.402344 28.179688 -65.488281 27.308594 -65.140625 C 26.089844 -64.707031 25.394531 -63.75 25.046875 -62.617188 C 24.351562 -60.707031 23.65625 -58.878906 23.132812 -56.964844 C 21.21875 -49.660156 19.394531 -42.355469 17.566406 -35.050781 C 16.699219 -31.570312 15.828125 -28.089844 15.046875 -24.613281 C 12.523438 -23.65625 10.089844 -22.785156 7.828125 -21.742188 C 5.566406 -20.613281 2.78125 -20.089844 1.390625 -17.132812 C 2.175781 -16.785156 2.957031 -16.175781 3.566406 -16.261719 C 4.957031 -16.351562 6.4375 -16.699219 7.828125 -17.046875 C 9.652344 -17.65625 11.304688 -18.699219 13.566406 -18.871094 C 13.394531 -17.742188 13.304688 -16.785156 13.132812 -15.914062 C 11.652344 -7.828125 10 0.175781 8.523438 8.261719 C 8.175781 10.4375 8.089844 12.699219 8.089844 14.957031 C 8.089844 17.132812 9.132812 17.566406 11.480469 16.523438 C 11.566406 12.523438 18.089844 -14.957031 20.523438 -21.21875 C 20.785156 -21.394531 21.132812 -21.65625 21.480469 -21.742188 C 30.527344 -24.351562 39.570312 -26.960938 48.617188 -29.570312 C 49.050781 -29.65625 49.574219 -29.484375 50.183594 -29.394531 C 50.007812 -28.4375 49.921875 -27.65625 49.746094 -26.875 C 48.441406 -21.480469 47.050781 -16.089844 45.832031 -10.699219 C 43.660156 -1.128906 41.570312 8.4375 39.570312 18.089844 C 39.136719 20.351562 39.136719 22.785156 39.136719 25.132812 C 39.136719 26.265625 39.570312 26.4375 41.570312 26.265625 C 43.917969 16.699219 46.269531 7.042969 48.789062 -2.523438 C 51.3125 -12.261719 53.746094 -22.003906 56.703125 -31.570312 C 59.660156 -32.265625 62.359375 -32.960938 65.140625 -33.570312 C 66.792969 -33.917969 68.445312 -34.265625 70.183594 -33.570312 C 71.402344 -33.136719 72.707031 -33.308594 73.835938 -34.09375 C 74.011719 -35.398438 73.316406 -36.003906 72.445312 -36.351562 C 71.488281 -36.789062 70.359375 -37.136719 69.402344 -37.050781 C 66.878906 -36.960938 64.359375 -36.703125 61.835938 -36.441406 C 60.707031 -36.351562 59.574219 -36.179688 58.183594 -36.09375 C 58.183594 -38.09375 58.878906 -39.746094 59.3125 -41.3125 Z M 59.3125 -41.3125 "/></g></g></g></svg>